<?xml version="1.0" encoding="UTF-8"?>
<svg width="1024px" height="1061px" viewBox="0 0 1024 1061" xmlns="http://www.w3.org/2000/svg" xmlns:xlink="http://www.w3.org/1999/xlink" version="1.1">
 <!-- Generated by Pixelmator Pro 1.7.1 -->
 <path id="Path" d="M849.132 1043.803 L1007.812 883.229 C1029.396 860.819 1029.396 825.353 1007.812 802.943 997.32 792.294 982.996 786.298 968.047 786.298 953.098 786.298 938.774 792.294 928.282 802.943 L872.233 871.035 872.233 265.098 C872.233 108.538 735.519 0.492 581.005 0.492 L58.005 0.492 C37.462 -0.04 18.249 10.616 7.821 28.323 -2.607 46.03 -2.607 68 7.821 85.707 18.249 103.414 37.462 114.069 58.005 113.537 L581.005 114.068 C673.789 114.068 758.62 171.177 758.62 265.097 L758.62 871.035 690.452 802.867 C680.036 792.221 665.77 786.221 650.877 786.221 635.983 786.221 621.717 792.221 611.301 802.867 589.15 825.046 589.15 860.975 611.301 883.154 L769.602 1043.727 C780.084 1054.386 794.402 1060.395 809.351 1060.409 824.3 1060.424 838.63 1054.442 849.132 1043.803 Z" fill="#FFFFFF" fill-opacity="1" stroke="none"/>
</svg>
